<?xml version="1.0" encoding="iso-8859-1"?>
<!-- Generator: Adobe Illustrator 17.1.0, SVG Export Plug-In . SVG Version: 6.00 Build 0)  -->
<!DOCTYPE svg PUBLIC "-//W3C//DTD SVG 1.1//EN" "http://www.w3.org/Graphics/SVG/1.1/DTD/svg11.dtd">
<svg version="1.1" id="Capa_1" xmlns="http://www.w3.org/2000/svg" xmlns:xlink="http://www.w3.org/1999/xlink" x="0px" y="0px"
	 viewBox="0 0 197.404 197.404" style="enable-background:new 0 0 197.404 197.404;" xml:space="preserve">
<path d="M192.404,0.035H5c-2.762,0-5,2.239-5,5v18.821v10.042v23.513v80.958v24.471v10.042v19.488c0,2.761,2.238,5,5,5h187.404
	c2.762,0,5-2.239,5-5V5.035C197.404,2.274,195.166,0.035,192.404,0.035z M10,187.369v-7.042h7.487c4.105,0,7.446-3.34,7.446-7.446
	V162.84c0-4.105-3.341-7.446-7.446-7.446H10v-12.025h0.542c10.665,0,19.341-7.144,19.341-15.926V68.337
	c0-8.782-8.676-15.926-19.341-15.926H10V41.344h7.487c4.105,0,7.446-3.34,7.446-7.446V23.857c0-4.106-3.341-7.446-7.446-7.446H10
	v-6.375h177.404v6.375h-9.628c-4.105,0-7.446,3.34-7.446,7.446v10.042c0,4.105,3.341,7.446,7.446,7.446h9.628v11.067h-2.683
	c-10.665,0-19.341,7.144-19.341,15.926v59.106c0,8.782,8.676,15.926,19.341,15.926h2.683v12.025h-9.628
	c-4.105,0-7.446,3.34-7.446,7.446v10.042c0,4.106,3.341,7.446,7.446,7.446h9.628v7.042H10z M134.197,143.369H61.066
	c-11.892,0-21.565-9.674-21.565-21.565V73.976c0-11.891,9.674-21.565,21.565-21.565h73.131c11.892,0,21.565,9.674,21.565,21.565
	v47.828C155.763,133.695,146.089,143.369,134.197,143.369z M59,162.84v10.042c0,4.106-3.341,7.446-7.446,7.446H41.513
	c-4.105,0-7.446-3.34-7.446-7.446V162.84c0-4.105,3.341-7.446,7.446-7.446h10.041C55.659,155.394,59,158.734,59,162.84z
	 M93.065,162.84v10.042c0,4.106-3.34,7.446-7.445,7.446H75.578c-4.105,0-7.446-3.34-7.446-7.446V162.84
	c0-4.105,3.341-7.446,7.446-7.446H85.62C89.726,155.394,93.065,158.734,93.065,162.84z M127.132,162.84v10.042
	c0,4.106-3.341,7.446-7.446,7.446h-10.042c-4.105,0-7.445-3.34-7.445-7.446V162.84c0-4.105,3.34-7.446,7.445-7.446h10.042
	C123.791,155.394,127.132,158.734,127.132,162.84z M161.197,162.84v10.042c0,4.106-3.341,7.446-7.446,7.446H143.71
	c-4.105,0-7.446-3.34-7.446-7.446V162.84c0-4.105,3.341-7.446,7.446-7.446h10.041C157.856,155.394,161.197,158.734,161.197,162.84z
	 M34.066,33.898V23.857c0-4.106,3.341-7.446,7.446-7.446h10.041c4.105,0,7.446,3.34,7.446,7.446v10.042
	c0,4.105-3.341,7.446-7.446,7.446H41.513C37.407,41.344,34.066,38.004,34.066,33.898z M68.132,33.898V23.857
	c0-4.106,3.341-7.446,7.446-7.446H85.62c4.105,0,7.445,3.34,7.445,7.446v10.042c0,4.105-3.34,7.446-7.445,7.446H75.578
	C71.473,41.344,68.132,38.004,68.132,33.898z M102.198,33.898V23.857c0-4.106,3.34-7.446,7.445-7.446h10.042
	c4.105,0,7.446,3.34,7.446,7.446v10.042c0,4.105-3.341,7.446-7.446,7.446h-10.042C105.538,41.344,102.198,38.004,102.198,33.898z
	 M161.197,23.857v10.042c0,4.105-3.341,7.446-7.446,7.446H143.71c-4.105,0-7.446-3.34-7.446-7.446V23.857
	c0-4.106,3.341-7.446,7.446-7.446h10.041C157.856,16.41,161.197,19.751,161.197,23.857z"/>
<g>
</g>
<g>
</g>
<g>
</g>
<g>
</g>
<g>
</g>
<g>
</g>
<g>
</g>
<g>
</g>
<g>
</g>
<g>
</g>
<g>
</g>
<g>
</g>
<g>
</g>
<g>
</g>
<g>
</g>
</svg>
